<svg id="Layer_1" data-name="Layer 1" xmlns="http://www.w3.org/2000/svg" viewBox="0 0 482.99 447.89"><defs><style>.cls-1{fill:#fff;}</style></defs><path class="cls-1" d="M89.13,482.69c27.24-23.38,45.49-56.38,91.22-57.32,19.64-.4,38.79-24.67,58.17-38.09l.3-8.64-81.46-55.38c-8.47,23.26-15.85,43.56-23.24,63.86l-10-1.19c13-35.59,24.18-70.93-14.15-103.77,9,.7,13.61-.36,15.76,1.46C138,294,148.8,306.25,161.83,315.43c8.12,5.74,19.1,8.88,29.13,9.85,5,.48,10.7-6.53,16.08-10.16-3.21-4.43-5.82-9.47-9.72-13.18-20.44-19.42-40.93-38.82-62-57.59C122.65,233,110,235.09,98,246.71c-8.16,7.9-18.41,13.93-25.42,22.65C66.42,277,62.3,287,59.46,296.54c-2,6.82-1.77,15-.17,22.09,8.57,37.82-20.23,54.91-41.64,75.82-3.11,3-9.91,2.32-17.62.31,5.71-5.43,10.89-11.62,17.24-16.16C36.78,364.66,50.6,349,47,322.12c-6.1-45.56,19.9-75.64,57.71-90.31,20.57-8,37-18.79,53.81-31.15,10.95-8.08,20.44-11.31,33.09-.47,9.47,8.13,24.34,9.82,34.28,17.6,9.64,7.54,16.23,19.06,23.78,29.11,1.88,2.52,1.4,7.88,3.53,9,25.16,12.93,24.46,44.16,43.91,61.22,8.48,7.44,8.61,15.29-1.37,24.13-24.42,21.61-47.39,44.84-71.4,66.92-11.7,10.77-24.38,20.52-36.8,30.48-1.88,1.51-5.12,2.84-7.25,2.32-35.39-8.72-54.56,15-74.86,36.8-3.64,3.91-8,7.12-12.11,10.65ZM238.4,369.81c16.91.59,51-27.81,49.9-39.71-.65-6.9-5.94-14.39-11.27-19.32-2.28-2.1-11.18.06-15,3a269.57,269.57,0,0,0-32.8,29.46c-3.16,3.41-4,11.94-2,16.35C229.65,364.75,236.24,368,238.4,369.81Zm-34.59-79.36c12-16.21,22.87-29.52,31.68-44.06,1.45-2.38-5-12.12-9.82-14.91-3.91-2.26-11.91-.8-16.33,1.9a106.28,106.28,0,0,0-23,19c-3.71,4.08-7.79,13-5.87,16C185.16,275.66,193.22,280.84,203.81,290.45Zm0,44,3.29,4.17c5.82-2.45,12.68-3.68,17.27-7.58,10.23-8.7,19.06-19,29-28.12,7.48-6.85,19.64-11.78,7.14-24.12-10.56-10.42-21.1-17-32.36-.24-4,5.95-9.89,10.63-16,17,22,18.1-.5,26.83-8.3,38.89Zm-34.95-78.58c9.72-12.77,18.67-23.24,25.36-35,.8-1.4-13.07-15.31-16.14-14-13.63,5.78-25.8,15-39.81,23.79Z" transform="translate(-0.03 -40.53)"/><path class="cls-1" d="M138.44,174.52c-13.12,9-84.37,9.15-98.16.21C53.4,165.73,124.65,165.58,138.44,174.52Z" transform="translate(-0.03 -40.53)"/><path class="cls-1" d="M483,324H385.65C400.09,312.08,466.85,311,483,324Z" transform="translate(-0.03 -40.53)"/><path class="cls-1" d="M185.94,40.65v89.88h-6.19v-90Z" transform="translate(-0.03 -40.53)"/><path class="cls-1" d="M344.3,364.63V457.5C332.44,444.12,331,381.7,344.3,364.63Z" transform="translate(-0.03 -40.53)"/><path class="cls-1" d="M153.39,148.45,71.05,73.72l5-5.38,83.34,74Z" transform="translate(-0.03 -40.53)"/><path class="cls-1" d="M371.91,347.39l77.74,72.7-4,4.31-76.52-73.84Z" transform="translate(-0.03 -40.53)"/></svg>