<svg id="Layer_1" data-name="Layer 1" xmlns="http://www.w3.org/2000/svg" viewBox="0 0 522.22 488.42"><path d="M194.48,550.24c27.24-23.38,45.49-56.38,91.22-57.32,19.64-.4,38.79-24.67,58.17-38.09l.3-8.64-81.46-55.38c-8.47,23.26-15.85,43.56-23.24,63.86l-10-1.19c13-35.59,24.18-70.93-14.15-103.77,9,.7,13.61-.36,15.76,1.46,12.25,10.37,23.07,22.63,36.1,31.81,8.12,5.74,19.1,8.88,29.13,9.85,5,.48,10.7-6.53,16.08-10.16-3.21-4.43-5.82-9.47-9.72-13.18-20.44-19.42-40.93-38.82-62-57.59-12.67-11.31-25.29-9.26-37.31,2.36-8.16,7.9-18.41,13.93-25.42,22.65-6.17,7.68-10.29,17.6-13.13,27.18-2,6.82-1.77,15-.17,22.09C173.21,424,144.41,441.09,123,462c-3.11,3-9.91,2.32-17.62.31,5.71-5.43,10.89-11.62,17.24-16.16,19.51-13.94,33.33-29.6,29.74-56.48-6.1-45.56,19.9-75.64,57.71-90.31,20.57-8,37-18.79,53.81-31.15,10.95-8.08,20.44-11.31,33.09-.47,9.47,8.13,24.34,9.82,34.28,17.6,9.64,7.54,16.23,19.06,23.78,29.11,1.88,2.52,1.4,7.88,3.53,9,25.16,12.93,24.46,44.16,43.91,61.22,8.48,7.44,8.61,15.29-1.37,24.13-24.42,21.61-47.39,44.84-71.4,66.92C318,486.49,305.32,496.24,292.9,506.2c-1.88,1.51-5.12,2.84-7.25,2.32-35.39-8.72-54.56,15-74.86,36.8-3.64,3.91-8,7.12-12.11,10.65ZM343.75,437.36c16.91.59,51-27.81,49.9-39.71-.65-6.9-5.94-14.39-11.27-19.32-2.28-2.1-11.18.06-15,3a269.91,269.91,0,0,0-32.8,29.46c-3.16,3.41-4,11.94-2,16.35C335,432.3,341.59,435.52,343.75,437.36ZM309.16,358c12-16.21,22.87-29.52,31.68-44.06,1.45-2.38-5-12.12-9.82-14.91-3.91-2.26-11.91-.8-16.33,1.9a106.21,106.21,0,0,0-23,19c-3.71,4.08-7.79,13-5.87,16C290.51,343.21,298.57,348.39,309.16,358Zm0,44,3.29,4.17c5.82-2.45,12.68-3.68,17.27-7.58,10.23-8.7,19.06-19,29-28.12,7.48-6.85,19.64-11.78,7.14-24.12-10.56-10.42-21.1-17-32.36-.24-4,5.95-9.89,10.63-16,17C339.52,381.21,317,389.94,309.2,402Zm-34.95-78.58c9.72-12.77,18.67-23.24,25.36-35,.8-1.4-13.07-15.31-16.14-14-13.63,5.78-25.8,15-39.81,23.79Z" transform="translate(-105.35 -67.55)"/><path d="M477.93,231c2.05-39.27,13.07-59.21,25.91-58.26-3.57,15.54-10.89,31.8-9.92,47.54s10.26,30.79,17.6,50.8c-16.09-11.15-29.79-18.84-41.3-29C448.75,223.19,443.67,222.54,423,241c15.7,16.9,30.76,34.44,47.31,50.43a110.12,110.12,0,0,0,31.15,21.3c6.48,2.87,17,2,23.38-1.47,11-6,22-13.91,29.78-23.63,6.9-8.69,10.2-20.66,13.43-31.67,1.82-6.21,1.21-13.57.07-20.13-5.65-32.47,11.57-51.55,37.18-66.69,6.78-4,11.9-10.83,17.79-16.36l4.47,4.18c-11.5,12.27-23.79,23.9-34.17,37.05a59.57,59.57,0,0,0-11.08,25.12C578.6,239,581,261.22,573.06,279c-10.81,24.09-31.18,41.19-59.06,48.31a81,81,0,0,0-35.86,20.27c-12.4,12.45-23.37,15.91-38.36,6.85-11.61-7-24.59-12.24-34.92-20.73-9.3-7.65-16.06-18.48-23.44-28.28-3-4-4.06-9.48-7.07-13.48-13.64-18.11-27.87-35.8-41.5-53.93-8.69-11.56-6.09-19.73,5.36-29.8,22-19.31,42.26-40.7,61.9-62.44,16.32-18.07,37-26.78,59.66-30.31,28.74-4.47,47.66-21.63,68.72-47.88-1.72,9.07-1.08,14.67-3.58,17.36-11.47,12.34-23.28,24.51-36.15,35.34-4.9,4.13-13.42,7.18-19.52,6.14-32.72-5.53-49.93,17.36-69.4,36.18-1.79,1.73-2.76,7.66-1.65,8.53,12.63,9.93,12.86,30,32.87,35.06C446.71,210.15,460.49,221.44,477.93,231Zm-94.24-53c-13.19,11.88-25.42,23.08-37.87,34-13.78,12.12-1.83,22.17,4.27,30.49,2.05,2.81,15.49.32,21.43-3.4a138.53,138.53,0,0,0,30.3-25.61c3.78-4.31,5.18-14.68,2.57-19.61C401.17,187.87,392.66,184.56,383.69,178.06Zm51,33.91c-41.3,1.31-49,39-75.06,51.41,25.48,28.93,28.38,30,43.8,14.46,9.43-9.54,27.79-18.83,2.4-32.85Zm21.74,79-.43-9c-11.93-4.08-25.86-14-35.29-10.76-11.93,4.08-20.51,18.58-29.77,29.25-1.7,2-1.21,8.5.74,10.52,8,8.23,16.09,19.51,29.66,9C433.31,310.67,444.73,300.64,456.41,290.94Zm7.21,6.62c-8.5,6.73-16.25,11.63-22.44,18.05-11.62,12.05-1.26,36.07,14.67,32.28,11.12-2.64,19.83-15.37,29.67-23.64Z" transform="translate(-105.35 -67.55)"/><path d="M243.79,242.07c-13.12,9-84.37,9.15-98.16.21C158.75,233.28,230,233.13,243.79,242.07Z" transform="translate(-105.35 -67.55)"/><path d="M588.37,391.52H491C505.44,379.63,572.2,378.51,588.37,391.52Z" transform="translate(-105.35 -67.55)"/><path d="M291.29,108.2v89.88l-6.19,0v-90Z" transform="translate(-105.35 -67.55)"/><path d="M449.65,432.18v92.87C437.79,511.67,436.37,449.25,449.65,432.18Z" transform="translate(-105.35 -67.55)"/><path d="M258.74,216,176.4,141.27l5-5.38,83.34,74Q261.75,212.94,258.74,216Z" transform="translate(-105.35 -67.55)"/><path d="M477.26,414.94,555,487.64l-4,4.31-76.52-73.84Z" transform="translate(-105.35 -67.55)"/></svg>